# xmcd CD database file
#
# Track frame offsets:
#	150
#	12497
#	30081
#	43338
#	53388
#	66723
#	87888
#
# Disc length: 1435 seconds
#
# Revision: 0
# Processed by: cddbd v1.5.2PL0 Copyright (c) Steve Scherf et al.
# Submitted via: CDex 1.51
#
DISCID=53059907
DTITLE=Cinnamon Hill Band - Demo
DYEAR=1900
DGENRE=Country
TTITLE0=Folsom Prison Blues
TTITLE1=Sunday morning coming down
TTITLE2=Cocain Blues
TTITLE3=Daddy sang Bass
TTITLE4=(Ghost) Riders in the Sky
TTITLE5=Instrumental
TTITLE6=When the Man comes around
EXTD=
EXTT0=
EXTT1=
EXTT2=
EXTT3=
EXTT4=
EXTT5=
EXTT6=
PLAYORDER=
